<svg width="180" height="180" viewBox="0 0 180 180" fill="none" xmlns="http://www.w3.org/2000/svg">
<g clip-path="url(#clip0_432_1008)">
<path d="M90.0001 178.578C138.92 178.578 178.578 138.92 178.578 90.0001C178.578 41.0797 138.92 1.42188 90.0001 1.42188C41.0797 1.42188 1.42188 41.0797 1.42188 90.0001C1.42188 138.92 41.0797 178.578 90.0001 178.578Z" fill="#7BBE4A"/>
<path d="M132.512 71.2321L128.531 67.2511C126.967 65.6871 124.265 65.6871 122.702 67.2511L82.4645 107.488L57.7252 82.7487C56.1612 81.1848 53.4598 81.1848 51.8958 82.7487L47.7726 86.7298C46.2086 88.2938 46.2086 90.9952 47.7726 92.5592L79.4788 124.265C81.0427 125.829 83.7442 125.829 85.3081 124.265L89.0048 120.569L89.2892 120.284L132.512 77.0615C134.076 75.4976 134.076 72.9383 132.512 71.2321Z" fill="white"/>
<path d="M90 180C40.3791 180 0 139.621 0 90C0 40.3791 40.3791 0 90 0C139.621 0 180 40.3791 180 90C180 139.621 139.621 180 90 180ZM90 2.8436C41.9431 2.8436 2.8436 41.9431 2.8436 90C2.8436 138.057 41.9431 177.156 90 177.156C138.057 177.156 177.156 138.057 177.156 90C177.156 41.9431 138.057 2.8436 90 2.8436Z" fill="white"/>
<path d="M82.3224 126.967C80.9006 126.967 79.4788 126.398 78.3413 125.403L46.6352 93.6966C44.5025 91.5639 44.5025 88.0094 46.6352 85.8767L50.7584 81.7535C52.8911 79.6208 56.5878 79.6208 58.5783 81.7535L82.3224 105.498L121.564 66.2559C122.559 65.2606 123.981 64.6919 125.545 64.6919C126.967 64.6919 128.389 65.2606 129.526 66.2559L133.507 70.2369C135.64 72.3696 135.64 75.9241 133.507 78.0568L86.3034 125.261C85.166 126.398 83.7442 126.967 82.3224 126.967ZM54.7394 83.0331C54.0285 83.0331 53.3176 83.3175 52.7489 83.8862L48.6257 88.0094C47.6304 89.0047 47.6304 90.853 48.6257 91.8483L80.3318 123.554C81.3271 124.55 83.1754 124.55 84.1707 123.554L131.374 76.3507C132.37 75.3554 132.37 73.5071 131.374 72.5118L127.393 68.5308C126.398 67.5355 124.55 67.5355 123.555 68.5308L83.3176 108.768C82.7489 109.336 81.8958 109.336 81.3271 108.768L56.5878 84.0284C56.1612 83.3175 55.4503 83.0331 54.7394 83.0331Z" fill="white"/>
</g>
<defs>
<clipPath id="clip0_432_1008">
<rect width="180" height="180" fill="white"/>
</clipPath>
</defs>
</svg>
