<svg width="24" height="24" viewBox="0 0 24 24" fill="none" xmlns="http://www.w3.org/2000/svg">
<path d="M5.54999 22C4.81665 22 4.19582 21.7459 3.68749 21.2375C3.17915 20.7292 2.92499 20.1084 2.92499 19.375V18.25C2.92499 18.0334 2.99582 17.8542 3.13749 17.7125C3.27915 17.5709 3.45832 17.5 3.67499 17.5H6.09999V2.65002C6.09999 2.48336 6.16665 2.40002 6.29999 2.40002C6.43332 2.40002 6.56665 2.46669 6.69999 2.60002L7.59999 3.50002L8.82499 2.27502C8.90832 2.19169 8.99999 2.15002 9.09999 2.15002C9.19999 2.15002 9.29165 2.19169 9.37499 2.27502L10.575 3.50002L11.8 2.27502C11.8833 2.19169 11.975 2.15002 12.075 2.15002C12.175 2.15002 12.2667 2.19169 12.35 2.27502L13.575 3.50002L14.8 2.27502C14.8833 2.19169 14.975 2.15002 15.075 2.15002C15.175 2.15002 15.2667 2.19169 15.35 2.27502L16.575 3.50002L17.8 2.27502C17.8833 2.19169 17.975 2.15002 18.075 2.15002C18.175 2.15002 18.2667 2.19169 18.35 2.27502L19.575 3.50002L20.475 2.60002C20.6083 2.46669 20.7417 2.40002 20.875 2.40002C21.0083 2.40002 21.075 2.48336 21.075 2.65002V19.375C21.075 20.1084 20.8208 20.7292 20.3125 21.2375C19.8042 21.7459 19.1833 22 18.45 22H5.54999ZM18.4 20.5C18.7333 20.5 19 20.3959 19.2 20.1875C19.4 19.9792 19.5 19.7084 19.5 19.375V4.10002H7.67499V17.5H16.675C16.8917 17.5 17.0708 17.5709 17.2125 17.7125C17.3542 17.8542 17.425 18.0334 17.425 18.25V19.375C17.425 19.7084 17.5083 19.9792 17.675 20.1875C17.8417 20.3959 18.0833 20.5 18.4 20.5ZM9.72499 7.95002C9.52499 7.95002 9.35415 7.87502 9.21249 7.72502C9.07082 7.57502 8.99999 7.39169 8.99999 7.17502C8.99999 6.97502 9.07082 6.80419 9.21249 6.66252C9.35415 6.52086 9.53332 6.45002 9.74999 6.45002H14.25C14.4667 6.45002 14.6458 6.52086 14.7875 6.66252C14.9292 6.80419 15 6.98336 15 7.20002C15 7.41669 14.9292 7.59586 14.7875 7.73752C14.6458 7.87919 14.4667 7.95002 14.25 7.95002H9.72499ZM9.72499 11.3C9.52499 11.3 9.35415 11.225 9.21249 11.075C9.07082 10.925 8.99999 10.7417 8.99999 10.525C8.99999 10.325 9.07082 10.1542 9.21249 10.0125C9.35415 9.87086 9.53332 9.80002 9.74999 9.80002H14.25C14.4667 9.80002 14.6458 9.87086 14.7875 10.0125C14.9292 10.1542 15 10.3334 15 10.55C15 10.7667 14.9292 10.9459 14.7875 11.0875C14.6458 11.2292 14.4667 11.3 14.25 11.3H9.72499ZM17.325 7.95002C17.125 7.95002 16.95 7.87502 16.8 7.72502C16.65 7.57502 16.575 7.40002 16.575 7.20002C16.575 7.00002 16.65 6.82502 16.8 6.67502C16.95 6.52502 17.125 6.45002 17.325 6.45002C17.525 6.45002 17.7 6.52502 17.85 6.67502C18 6.82502 18.075 7.00002 18.075 7.20002C18.075 7.40002 18 7.57502 17.85 7.72502C17.7 7.87502 17.525 7.95002 17.325 7.95002ZM17.325 11.175C17.125 11.175 16.95 11.1 16.8 10.95C16.65 10.8 16.575 10.625 16.575 10.425C16.575 10.225 16.65 10.05 16.8 9.90002C16.95 9.75002 17.125 9.67502 17.325 9.67502C17.525 9.67502 17.7 9.75002 17.85 9.90002C18 10.05 18.075 10.225 18.075 10.425C18.075 10.625 18 10.8 17.85 10.95C17.7 11.1 17.525 11.175 17.325 11.175Z" fill="#201E1E" fill-opacity="0.65"/>
</svg>
