<svg width="24" height="24" viewBox="0 0 24 24" fill="none" xmlns="http://www.w3.org/2000/svg">
<path d="M17.0999 2.775C17.2833 2.975 17.3791 3.20833 17.3874 3.475C17.3958 3.74167 17.2999 3.975 17.0999 4.175L9.22494 12.05L17.0999 19.925C17.2833 20.1083 17.3791 20.3375 17.3874 20.6125C17.3958 20.8875 17.2999 21.125 17.0999 21.325C16.9166 21.525 16.6874 21.6292 16.4124 21.6375C16.1374 21.6458 15.8999 21.55 15.6999 21.35L6.92494 12.575C6.84161 12.4917 6.78327 12.4083 6.74994 12.325C6.71661 12.2417 6.69994 12.15 6.69994 12.05C6.69994 11.95 6.71661 11.8583 6.74994 11.775C6.78327 11.6917 6.84161 11.6083 6.92494 11.525L15.6999 2.75C15.8833 2.56667 16.1124 2.475 16.3874 2.475C16.6624 2.475 16.8999 2.575 17.0999 2.775Z" fill="black"/>
</svg>
