<svg width="20" height="20" viewBox="0 0 20 20" fill="none" xmlns="http://www.w3.org/2000/svg">
<path d="M9.99984 13.875C11.0832 13.875 11.9998 13.5 12.7498 12.75C13.4998 12 13.8748 11.0833 13.8748 9.99996C13.8748 8.91663 13.4998 7.99996 12.7498 7.24996C11.9998 6.49996 11.0832 6.12496 9.99984 6.12496C8.9165 6.12496 7.99984 6.49996 7.24984 7.24996C6.49984 7.99996 6.12484 8.91663 6.12484 9.99996C6.12484 11.0833 6.49984 12 7.24984 12.75C7.99984 13.5 8.9165 13.875 9.99984 13.875ZM9.99984 18.3333C8.86095 18.3333 7.78456 18.1145 6.77067 17.677C5.75678 17.2395 4.87137 16.6423 4.11442 15.8854C3.35748 15.1284 2.76025 14.243 2.32275 13.2291C1.88525 12.2152 1.6665 11.1388 1.6665 9.99996C1.6665 8.84718 1.88525 7.76385 2.32275 6.74996C2.76025 5.73607 3.35748 4.85413 4.11442 4.10413C4.87137 3.35413 5.75678 2.76038 6.77067 2.32288C7.78456 1.88538 8.86095 1.66663 9.99984 1.66663C11.1526 1.66663 12.2359 1.88538 13.2498 2.32288C14.2637 2.76038 15.1457 3.35413 15.8957 4.10413C16.6457 4.85413 17.2394 5.73607 17.6769 6.74996C18.1144 7.76385 18.3332 8.84718 18.3332 9.99996C18.3332 11.1388 18.1144 12.2152 17.6769 13.2291C17.2394 14.243 16.6457 15.1284 15.8957 15.8854C15.1457 16.6423 14.2637 17.2395 13.2498 17.677C12.2359 18.1145 11.1526 18.3333 9.99984 18.3333ZM9.99984 17.0833C11.9721 17.0833 13.6457 16.3923 15.0207 15.0104C16.3957 13.6284 17.0832 11.9583 17.0832 9.99996C17.0832 8.02774 16.3957 6.35413 15.0207 4.97913C13.6457 3.60413 11.9721 2.91663 9.99984 2.91663C8.0415 2.91663 6.37137 3.60413 4.98942 4.97913C3.60748 6.35413 2.9165 8.02774 2.9165 9.99996C2.9165 11.9583 3.60748 13.6284 4.98942 15.0104C6.37137 16.3923 8.0415 17.0833 9.99984 17.0833Z" fill="#7BBE4A"/>
</svg>
