<svg width="20" height="20" viewBox="0 0 20 20" fill="none" xmlns="http://www.w3.org/2000/svg">
<path d="M2.89844 2.00422C2.79023 1.97284 2.67554 1.9713 2.56652 1.99975C2.4575 2.02821 2.35819 2.08561 2.27912 2.16588C2.20005 2.24615 2.14414 2.3463 2.11733 2.45574C2.09051 2.56517 2.09377 2.67982 2.12678 2.78756L4.15344 9.37506H11.2501C11.4159 9.37506 11.5748 9.44091 11.6921 9.55812C11.8093 9.67533 11.8751 9.8343 11.8751 10.0001C11.8751 10.1658 11.8093 10.3248 11.6921 10.442C11.5748 10.5592 11.4159 10.6251 11.2501 10.6251H4.15344L2.12678 17.2126C2.09377 17.3203 2.09051 17.4349 2.11733 17.5444C2.14414 17.6538 2.20005 17.754 2.27912 17.8342C2.35819 17.9145 2.4575 17.9719 2.56652 18.0004C2.67554 18.0288 2.79023 18.0273 2.89844 17.9959C8.41092 16.3928 13.6092 13.8603 18.2693 10.5076C18.3498 10.4497 18.4154 10.3735 18.4606 10.2852C18.5059 10.197 18.5295 10.0992 18.5295 10.0001C18.5295 9.90089 18.5059 9.80314 18.4606 9.7149C18.4154 9.62665 18.3498 9.55044 18.2693 9.49256C13.6092 6.13977 8.41093 3.60726 2.89844 2.00422Z" fill="white"/>
</svg>
