<svg width="12" height="12" viewBox="0 0 12 12" fill="none" xmlns="http://www.w3.org/2000/svg">
<path fill-rule="evenodd" clip-rule="evenodd" d="M2.73491 2.73495C2.80523 2.66473 2.90054 2.62528 2.99991 2.62528C3.09929 2.62528 3.1946 2.66473 3.26491 2.73495L5.99991 5.46995L8.73491 2.73495C8.76924 2.69811 8.81065 2.66856 8.85664 2.64806C8.90264 2.62757 8.9523 2.61655 9.00265 2.61566C9.053 2.61477 9.10302 2.62403 9.14971 2.64289C9.19641 2.66175 9.23882 2.68983 9.27443 2.72544C9.31004 2.76104 9.33812 2.80346 9.35698 2.85016C9.37584 2.89685 9.3851 2.94686 9.38421 2.99722C9.38332 3.04757 9.3723 3.09722 9.3518 3.14322C9.33131 3.18922 9.30176 3.23062 9.26491 3.26495L6.52991 5.99995L9.26491 8.73495C9.30176 8.76929 9.33131 8.81069 9.3518 8.85668C9.3723 8.90268 9.38332 8.95234 9.38421 9.00269C9.3851 9.05304 9.37584 9.10306 9.35698 9.14975C9.33812 9.19645 9.31004 9.23886 9.27443 9.27447C9.23882 9.31008 9.19641 9.33816 9.14971 9.35702C9.10302 9.37588 9.053 9.38514 9.00265 9.38425C8.9523 9.38336 8.90264 9.37234 8.85664 9.35184C8.81065 9.33135 8.76924 9.3018 8.73491 9.26495L5.99991 6.52995L3.26491 9.26495C3.19383 9.33119 3.0998 9.36726 3.00265 9.36554C2.9055 9.36383 2.81281 9.32447 2.7441 9.25576C2.6754 9.18706 2.63604 9.09437 2.63433 8.99722C2.63261 8.90006 2.66867 8.80604 2.73491 8.73495L5.46991 5.99995L2.73491 3.26495C2.66469 3.19464 2.62524 3.09933 2.62524 2.99995C2.62524 2.90058 2.66469 2.80527 2.73491 2.73495Z" fill="#009F40"/>
</svg>
