<svg width="22" height="22" viewBox="0 0 22 22" fill="none" xmlns="http://www.w3.org/2000/svg">
<path d="M11 3.81213C6.14756 3.81213 1.9654 6.67262 0.0442525 10.8005C-0.0147508 10.9256 -0.0147508 11.0719 0.0442525 11.1994C1.9654 15.3272 6.14759 18.1877 11 18.1877C15.8524 18.1877 20.0346 15.3273 21.9557 11.1994C22.0148 11.0743 22.0148 10.928 21.9557 10.8005C20.0346 6.67262 15.8524 3.81213 11 3.81213ZM11 15.9598C8.25988 15.9598 6.04136 13.7389 6.04136 11.0011C6.04136 8.261 8.26224 6.04247 11 6.04247C13.7401 6.04247 15.9586 8.26336 15.9586 11.0011C15.9586 13.7389 13.7378 15.9598 11 15.9598Z" fill="#696969" fill-opacity="0.4"/>
<path d="M10.9999 14.1731C12.753 14.1731 14.1742 12.7519 14.1742 10.9987C14.1742 9.24556 12.753 7.82434 10.9999 7.82434C9.2467 7.82434 7.82548 9.24556 7.82548 10.9987C7.82548 12.7519 9.2467 14.1731 10.9999 14.1731Z" fill="#696969" fill-opacity="0.4"/>
</svg>
